<svg width="32" height="32" viewBox="0 0 32 32" fill="none" xmlns="http://www.w3.org/2000/svg">
<path d="M17.2398 6.38672H9.79984C4.33317 6.38672 2.6665 8.05339 2.6665 13.5201V18.4801C2.6665 23.9467 4.33317 25.6134 9.79984 25.6134H17.2398C22.7065 25.6134 24.3732 23.9467 24.3732 18.4801V13.5201C24.3732 8.05339 22.7065 6.38672 17.2398 6.38672Z" fill="white"/>
<path d="M27.2268 12.0003C27.0401 11.987 26.8001 11.9736 26.5334 11.9736C26.0134 11.9736 25.6001 12.387 25.6001 12.907V19.107C25.6001 19.627 26.0134 20.0403 26.5334 20.0403C26.8001 20.0403 27.0268 20.027 27.2534 20.0136C29.3334 19.7736 29.3334 18.307 29.3334 17.2403V14.7603C29.3334 13.6936 29.3334 12.227 27.2268 12.0003Z" fill="white"/>
</svg>
