<svg width="32" height="32" viewBox="0 0 32 32" fill="none" xmlns="http://www.w3.org/2000/svg">
<path d="M14.7332 19.9337L12.2665 22.4003C11.7465 22.9203 10.9198 22.9203 10.3865 22.4137C10.2398 22.267 10.0932 22.1337 9.9465 21.987C8.57317 20.6003 7.33317 19.147 6.2265 17.627C5.13317 16.107 4.25317 14.587 3.61317 13.0803C2.9865 11.5603 2.6665 10.107 2.6665 8.72033C2.6665 7.81366 2.8265 6.94699 3.1465 6.14699C3.4665 5.33366 3.97317 4.58699 4.67984 3.92033C5.53317 3.08033 6.4665 2.66699 7.45317 2.66699C7.8265 2.66699 8.19984 2.74699 8.53317 2.90699C8.87984 3.06699 9.1865 3.30699 9.4265 3.65366L12.5198 8.01366C12.7598 8.34699 12.9332 8.65366 13.0532 8.94699C13.1732 9.22699 13.2398 9.50699 13.2398 9.76033C13.2398 10.0803 13.1465 10.4003 12.9598 10.707C12.7865 11.0137 12.5332 11.3337 12.2132 11.6537L11.1998 12.707C11.0532 12.8537 10.9865 13.027 10.9865 13.2403C10.9865 13.347 10.9998 13.4403 11.0265 13.547C11.0665 13.6537 11.1065 13.7337 11.1332 13.8137C11.3732 14.2537 11.7865 14.827 12.3732 15.5203C12.9732 16.2137 13.6132 16.9203 14.3065 17.627C14.4398 17.7603 14.5865 17.8937 14.7198 18.027C15.2532 18.547 15.2665 19.4003 14.7332 19.9337Z" fill="white"/>
<path d="M29.2931 24.4397C29.2931 24.8131 29.2265 25.1997 29.0931 25.5731C29.0531 25.6797 29.0131 25.7864 28.9598 25.8931C28.7331 26.3731 28.4398 26.8264 28.0531 27.2531C27.3998 27.9731 26.6798 28.4931 25.8665 28.8264C25.8531 28.8264 25.8398 28.8397 25.8265 28.8397C25.0398 29.1597 24.1865 29.3331 23.2665 29.3331C21.9065 29.3331 20.4531 29.0131 18.9198 28.3597C17.3865 27.7064 15.8531 26.8264 14.3331 25.7197C13.8131 25.3331 13.2931 24.9464 12.7998 24.5331L17.1598 20.1731C17.5331 20.4531 17.8665 20.6664 18.1465 20.8131C18.2131 20.8397 18.2931 20.8797 18.3865 20.9197C18.4931 20.9597 18.5998 20.9731 18.7198 20.9731C18.9465 20.9731 19.1198 20.8931 19.2665 20.7464L20.2798 19.7464C20.6131 19.4131 20.9331 19.1597 21.2398 18.9997C21.5465 18.8131 21.8531 18.7197 22.1865 18.7197C22.4398 18.7197 22.7065 18.7731 22.9998 18.8931C23.2931 19.0131 23.5998 19.1864 23.9331 19.4131L28.3465 22.5464C28.6931 22.7864 28.9331 23.0664 29.0798 23.3997C29.2131 23.7331 29.2931 24.0664 29.2931 24.4397Z" fill="white"/>
</svg>
