<svg width="28" height="28" viewBox="0 0 28 28" fill="none" xmlns="http://www.w3.org/2000/svg">
<path d="M27.3332 19.587C27.3332 24.4403 24.4398 27.3337 19.5865 27.3337H17.9998C17.2665 27.3337 16.6665 26.7337 16.6665 26.0003V18.307C16.6665 17.947 16.9598 17.6403 17.3198 17.6403L19.6665 17.6003C19.8532 17.587 20.0132 17.4537 20.0532 17.267L20.5199 14.7203C20.5599 14.4803 20.3732 14.2537 20.1198 14.2537L17.2798 14.2937C16.9065 14.2937 16.6132 14.0003 16.5999 13.6403L16.5465 10.3737C16.5465 10.1603 16.7198 9.97367 16.9465 9.97367L20.1465 9.92033C20.3731 9.92033 20.5465 9.74701 20.5465 9.52034L20.4932 6.32031C20.4932 6.09365 20.3198 5.92033 20.0932 5.92033L16.4932 5.97367C14.2798 6.01367 12.5199 7.82699 12.5599 10.0403L12.6265 13.707C12.6398 14.0803 12.3465 14.3737 11.9732 14.387L10.3732 14.4137C10.1465 14.4137 9.97318 14.587 9.97318 14.8136L10.0132 17.347C10.0132 17.5737 10.1865 17.747 10.4132 17.747L12.0132 17.7203C12.3865 17.7203 12.6798 18.0137 12.6932 18.3737L12.8132 25.9737C12.8265 26.7203 12.2265 27.3337 11.4798 27.3337H8.41317C3.55983 27.3337 0.666504 24.4403 0.666504 19.5736V8.41366C0.666504 3.56032 3.55983 0.666992 8.41317 0.666992H19.5865C24.4398 0.666992 27.3332 3.56032 27.3332 8.41366V19.587Z" fill="white"/>
</svg>
