<svg width="28" height="24" viewBox="0 0 28 24" fill="none" xmlns="http://www.w3.org/2000/svg">
<path d="M20.6665 0.666992H7.33317C3.33317 0.666992 0.666504 2.66699 0.666504 7.33366V16.667C0.666504 21.3337 3.33317 23.3337 7.33317 23.3337H20.6665C24.6665 23.3337 27.3332 21.3337 27.3332 16.667V7.33366C27.3332 2.66699 24.6665 0.666992 20.6665 0.666992ZM21.2932 8.78699L17.1198 12.1203C16.2398 12.827 15.1198 13.1737 13.9998 13.1737C12.8798 13.1737 11.7465 12.827 10.8798 12.1203L6.7065 8.78699C6.27984 8.44033 6.21317 7.80032 6.5465 7.37366C6.89317 6.94699 7.51984 6.86699 7.9465 7.21366L12.1198 10.547C13.1332 11.3603 14.8532 11.3603 15.8665 10.547L20.0398 7.21366C20.4665 6.86699 21.1065 6.93366 21.4398 7.37366C21.7865 7.80032 21.7198 8.44033 21.2932 8.78699Z" fill="white"/>
</svg>
