<svg width="28" height="28" viewBox="0 0 28 28" fill="none" xmlns="http://www.w3.org/2000/svg">
<path d="M27.3064 13.2133C26.8531 5.47993 19.8264 -0.480051 11.7331 0.853282C6.15973 1.77328 1.69307 6.29326 0.826406 11.8666C0.319739 15.0933 0.986435 18.1466 2.43977 20.6666L1.25308 25.0799C0.986416 26.0799 1.90639 26.9866 2.89306 26.7066L7.23974 25.5066C9.21307 26.6666 11.5197 27.3333 13.9864 27.3333C21.5064 27.3333 27.7464 20.7066 27.3064 13.2133ZM20.5064 18.9599C20.3864 19.1999 20.2397 19.4266 20.0531 19.6399C19.7197 19.9999 19.3597 20.2666 18.9597 20.4266C18.5597 20.5999 18.1197 20.6799 17.6531 20.6799C16.9731 20.6799 16.2397 20.5199 15.4797 20.1866C14.7064 19.8533 13.9464 19.4133 13.1864 18.8666C12.4131 18.3066 11.6931 17.6799 10.9997 16.9999C10.3064 16.3066 9.69305 15.5732 9.13305 14.8132C8.58638 14.0532 8.14641 13.2933 7.82641 12.5333C7.50641 11.7733 7.34643 11.0399 7.34643 10.3466C7.34643 9.89328 7.42642 9.45327 7.58642 9.05327C7.74642 8.63994 7.99977 8.26661 8.35977 7.93328C8.78644 7.50661 9.25308 7.30661 9.74641 7.30661C9.93308 7.30661 10.1197 7.34661 10.293 7.42661C10.4664 7.50661 10.6264 7.6266 10.7464 7.79994L12.293 9.98658C12.413 10.1599 12.5064 10.3066 12.5597 10.4533C12.6264 10.5999 12.6531 10.7333 12.6531 10.8666C12.6531 11.0266 12.5998 11.1866 12.5064 11.3466C12.4131 11.5066 12.293 11.6666 12.133 11.8266L11.6264 12.3599C11.5464 12.4399 11.5198 12.5199 11.5198 12.6266C11.5198 12.6799 11.533 12.7333 11.5464 12.7866C11.573 12.8399 11.5864 12.8799 11.5998 12.9199C11.7198 13.1466 11.9331 13.4266 12.2264 13.7732C12.5331 14.1199 12.8531 14.4799 13.1998 14.8266C13.5598 15.1866 13.9064 15.5066 14.2664 15.8132C14.6131 16.1066 14.9064 16.3066 15.133 16.4266C15.173 16.4399 15.2131 16.4666 15.2531 16.4799C15.3064 16.5066 15.3598 16.5066 15.4264 16.5066C15.5464 16.5066 15.6265 16.4666 15.7065 16.3866L16.213 15.8799C16.3864 15.7066 16.5464 15.5866 16.6931 15.5066C16.8531 15.4133 16.9998 15.3599 17.1731 15.3599C17.3064 15.3599 17.4397 15.3866 17.5864 15.4533C17.7331 15.5199 17.8931 15.5999 18.0531 15.7199L20.2664 17.2933C20.4398 17.4133 20.5597 17.5599 20.6397 17.7199C20.7064 17.8933 20.7464 18.0533 20.7464 18.2399C20.6664 18.4666 20.6131 18.7199 20.5064 18.9599Z" fill="white"/>
</svg>
